<svg xmlns="http://www.w3.org/2000/svg" viewBox="0 0 1240 720" role="img" aria-labelledby="title desc">
  <title id="title">Opportunity triage decision flow</title>
  <desc id="desc">Public opportunity evidence is normalized, hard rejects bypass scoring, eligible opportunities receive an additive heuristic score and decision band, and higher-priority cases receive a reversible proof plan before human review.</desc>
  <rect width="1240" height="720" fill="#ffffff"/>
  <style>
    .label{font:600 13px Arial,sans-serif;letter-spacing:1.4px;fill:#5b6470}
    .title{font:700 22px Arial,sans-serif;fill:#111827}
    .body{font:15px Arial,sans-serif;fill:#374151}
    .small{font:13px Arial,sans-serif;fill:#4b5563}
    .box{fill:#ffffff;stroke:#111827;stroke-width:2}
    .soft{fill:#f8fafc;stroke:#64748b;stroke-width:2}
    .reject{fill:#fff7f7;stroke:#b42318;stroke-width:2}
    .proof{fill:#f6f8ef;stroke:#52672f;stroke-width:2}
    .arrow{stroke:#111827;stroke-width:2.2;fill:none;marker-end:url(#arrow)}
    .rejectArrow{stroke:#b42318;stroke-width:2.2;fill:none;marker-end:url(#arrowRed)}
  </style>
  <defs>
    <marker id="arrow" markerWidth="8" markerHeight="8" refX="7" refY="4" orient="auto"><path d="M0,0 L8,4 L0,8 z" fill="#111827"/></marker>
    <marker id="arrowRed" markerWidth="8" markerHeight="8" refX="7" refY="4" orient="auto"><path d="M0,0 L8,4 L0,8 z" fill="#b42318"/></marker>
  </defs>

  <text x="60" y="52" class="label">OPPORTUNITY INTELLIGENCE CORE</text>
  <text x="60" y="84" class="title">Triage flow: hard rejects never reach scoring</text>

  <rect x="60" y="130" width="220" height="92" rx="8" class="box"/>
  <text x="82" y="160" class="label">INPUT</text>
  <text x="82" y="190" class="title" style="font-size:20px">Public opportunity</text>

  <rect x="340" y="120" width="250" height="112" rx="8" class="soft"/>
  <text x="362" y="142" class="label">IDENTITY HELPER</text>
  <text x="362" y="166" class="title" style="font-size:18px">Optional normalize + key</text>
  <text x="362" y="188" class="small">canonical URL + normalized title</text>
  <text x="362" y="208" class="small">caller-side; not in assess()</text>
  <text x="362" y="225" class="small">may suppress duplicates</text>

  <polygon points="700,118 810,176 700,234 590,176" class="box"/>
  <text x="700" y="164" text-anchor="middle" class="label">HARD GATES</text>
  <text x="700" y="190" text-anchor="middle" class="body">eligible?</text>

  <rect x="880" y="122" width="290" height="108" rx="8" class="soft"/>
  <text x="902" y="152" class="label">HEURISTIC SCORE</text>
  <text x="902" y="181" class="title">Add named evidence</text>
  <text x="902" y="205" class="small">22 / 16 / 12 / ... are policy weights</text>
  <text x="902" y="224" class="small">not probability or confidence</text>

  <rect x="500" y="326" width="330" height="122" rx="8" class="reject"/>
  <text x="522" y="357" class="label" style="fill:#b42318">REJECT PATH</text>
  <text x="522" y="388" class="title">Return reject immediately</text>
  <text x="522" y="415" class="body">expired / unsafe / remote blocked /</text>
  <text x="522" y="438" class="body">geography ineligible</text>

  <rect x="880" y="300" width="290" height="170" rx="8" class="box"/>
  <text x="902" y="330" class="label">DECISION BANDS</text>
  <text x="902" y="360" class="body">75–100  → prepare_proof</text>
  <text x="902" y="388" class="body">55–74    → verify_then_prepare</text>
  <text x="902" y="416" class="body">35–54    → research</text>
  <text x="902" y="444" class="body">0–34      → deprioritize</text>

  <rect x="740" y="548" width="270" height="102" rx="8" class="proof"/>
  <text x="762" y="578" class="label" style="fill:#52672f">HIGHER-PRIORITY ONLY</text>
  <text x="762" y="608" class="title" style="font-size:20px">Small reversible proof</text>
  <text x="762" y="633" class="small">before/after evidence when possible</text>

  <rect x="1035" y="548" width="185" height="102" rx="8" class="box"/>
  <text x="1055" y="578" class="label">BOUNDARY</text>
  <text x="1055" y="608" class="title" style="font-size:20px">Human review</text>
  <text x="1055" y="633" class="small">before contact</text>

  <path d="M280 176 H340" class="arrow"/>
  <path d="M580 176 H590" class="arrow"/>
  <path d="M810 176 H880" class="arrow"/>
  <text x="840" y="162" class="label">YES</text>

  <path d="M700 234 V326" class="rejectArrow"/>
  <text x="714" y="286" class="label" style="fill:#b42318">NO → SKIP SCORE</text>

  <path d="M1025 230 V300" class="arrow"/>
  <path d="M1025 470 V510 H875 V548" class="arrow"/>
  <text x="896" y="500" class="small">prepare / verify-then-prepare</text>
  <path d="M1010 599 H1035" class="arrow"/>

  <text x="60" y="690" class="small">Research/deprioritize bands do not create a proof plan. This core never sends outreach.</text>
</svg>
